<?xml version="1.0" encoding="UTF-8"?>
<svg id="Layer_2" data-name="Layer 2" xmlns="http://www.w3.org/2000/svg" viewBox="0 0 578.7 537.81">
  <defs>
    <style>
      .cls-1 {
        fill: #414F10;
      }
    </style>
  </defs>
  <g id="Layer_1-2" data-name="Layer 1">
    <path class="cls-1" d="m578.3,179.58c-4.21-58.26-34.23-115.66-79.27-152.73-41.59-34.23-103.04-34.79-148.23-7.01-2.01,1.23-2.34,1.84-4.93,3.82-.17-1.81-.68-10.17-.68-11.1,0-.84-9.29-3.87-15.58-4.06-7.97-.25-16.42,3.65-16.35,4.06.48,3.28.38,11.3-2.82,13.15-72.73-20.34-163.12-4.13-215.71,52.16-17.03,18.23-45.25,9.95-63.72,28.05-15.14,14.83-23.64,37.47-29.59,57.4-3.23,10.81-1.18,15.25,8.88,20.64,4.6,2.46,9.26,4.82,13.76,7.44,4.35,2.53,7.11,7.12,7.3,12.15.22,5.78.57,11.63-.02,17.36-.7,6.8.91,12.47,5.25,17.64,4.26,5.08,6.32,12.31,5.14,18.85-1.04,5.76-3.19,11.26-5.55,16.59-.21.47-.42.93-.62,1.4-.35.78-.67,1.56-1.03,2.33-.68,1.46-1.41,2.9-2.17,4.32-1.52,2.8-3.22,5.5-5.13,8.05-3.35,4.48-7.36,8.44-11.93,11.67-.88.62-1.71,1.35-2.47,2.12-4.68,4.72-4.49,10.14.72,14.36,2.14,1.73,4.64,3.04,7.02,4.46,9.55,5.71,12.16,16.17,6.27,25.62-1.27,2.04-2.89,3.87-4.29,5.84-3.05,4.29-3.03,7,.35,11.1,1.45,1.76,3.18,3.29,4.87,4.84,2.9,2.65,3.85,6.84,2.32,10.45-2.78,6.61-2.08,8.81,4.1,12.93,11.15,7.43,15.81,18.45,13.4,31.59-.35,1.89-.58,3.83-.64,5.75-.38,12.04,7.47,19.3,19.35,17.4,16.82-2.69,33.64-5.47,50.34-8.77,13.62-2.69,27.08-6.21,40.6-9.37,3.99-.93,7.5-.64,9.58,3.39.7,2.09,2.15,4.16,3.16,6.12,1.09,2.1,2.17,4.21,3.24,6.32,2.02,4,4,8.02,5.82,12.12,1.36,3.74,3.12,7.37,4.57,11.07,1.4,3.57,2.73,7.16,4.2,10.69.24.57.47,1.13.7,1.7,2.87,6.98,5.57,14.16,6.92,21.61,1.39,7.65,2.06,15.4,2.49,23.16.19,3.37.24,6.9,1.28,10.14.18.55.44,1.15.99,1.35.57.21,1.18-.12,1.68-.45,2.06-1.38,3.71-3.25,5.49-4.96,5.01-4.82,10.41-9.18,16.42-12.7,9.22-5.4,19.49-8.79,30-10.55,14.65-2.46,29.74-1.93,43.89,2.81,2.77.93,5.5,2.01,8.32,2.8,3.47.98.22-4.9-.24-5.98-1.29-3.07-2.62-6.13-3.97-9.18-2.61-5.91-5.28-11.79-7.79-17.74-4.84-11.47-8.99-23.17-11.01-35.49-2.32-14.18-3.5-29.75-2.47-44.09,1.45-20.15,14.89-37.34,30.05-49.77,11.84-9.72,24.25-18.9,36.25-28.47,68.47-54.62,66.87-141.19,36.26-215.97-3.9-9.53,19.49-2,23.22-.46,11.11,4.56,20.64,12.84,27.65,22.51,28.41,39.22,29.3,97.53-.1,136.32-11.99,15.83-26.45,29.1-41.48,41.89-21.5,18.3-45.13,33.61-53.5,62.08-7.4,25.18-7.31,59.9,6.04,82.99,8.09,14,20.75,25.01,36.67,28.87,12.14,2.94,24.95,2.08,37.1-.81,29.6-7.04,86.2-39.26,59.34-76.97-.73-1.02-1.62-1.94-2.95-3.51-1,3-1.72,5.26-2.52,7.5-3.51,9.84-11.42,15.33-22.86,15.92-8.96.47-15.88-4.01-20.19-13.12-3.02-6.38-2.75-12.85-.5-19.4,3.56-10.35,10.68-17.92,18.97-24.64,15.48-12.55,31.4-24.61,46.21-37.9,16.88-15.16,33.59-30.69,48.88-47.42,26.28-28.76,38.07-63.28,35.26-102.25Z"/>
  </g>
</svg>